<?xml version="1.0" standalone="no"?>
<!DOCTYPE svg PUBLIC "-//W3C//DTD SVG 20010904//EN"
 "http://www.w3.org/TR/2001/REC-SVG-20010904/DTD/svg10.dtd">
<svg version="1.0" xmlns="http://www.w3.org/2000/svg"
 width="640.000000pt" height="640.000000pt" viewBox="0 0 640.000000 640.000000"
 preserveAspectRatio="xMidYMid meet">
<metadata>
Created by potrace 1.14, written by Peter Selinger 2001-2017
</metadata>
<g transform="translate(0.000000,640.000000) scale(0.100000,-0.100000)"
fill="#000000" stroke="none">
<path d="M1766 4731 c-38 -42 -92 -101 -120 -131 -28 -30 -117 -127 -196 -215
-80 -88 -168 -185 -196 -215 -42 -46 -115 -127 -159 -176 -9 -10 -163 -178
-214 -233 -13 -14 -55 -61 -95 -105 -39 -43 -87 -95 -106 -116 -33 -36 -135
-148 -214 -235 -26 -29 -36 -50 -36 -75 -1 -19 -2 -365 -2 -767 l0 -733 -214
0 -214 0 0 -75 0 -75 288 0 287 0 -1 803 c0 498 3 810 9 822 9 17 76 93 254
285 23 25 50 55 61 68 20 22 171 189 202 222 8 9 105 115 215 235 110 121 204
225 210 231 5 6 48 53 95 105 47 52 112 122 145 157 l60 62 275 -381 c257
-355 318 -439 338 -464 4 -5 23 -32 42 -60 19 -27 40 -56 47 -65 6 -8 83 -114
170 -235 l159 -220 -1 -782 0 -783 351 0 352 0 -4 417 -4 418 37 41 c21 23 70
77 109 120 40 44 83 91 95 105 13 14 59 63 101 110 43 47 90 99 105 115 15 16
51 56 79 87 28 31 54 57 56 57 3 0 18 -19 34 -42 16 -24 31 -45 34 -48 6 -5
119 -160 150 -206 26 -37 96 -134 182 -252 l83 -114 0 -404 0 -404 891 0 892
0 -1 75 0 75 -809 0 c-444 -1 -812 1 -816 4 -5 3 -9 162 -9 354 l0 349 -248
344 c-136 189 -276 381 -309 427 l-61 83 -40 -44 c-126 -140 -183 -202 -205
-226 -14 -15 -67 -74 -119 -131 -52 -58 -106 -117 -120 -131 -14 -14 -55 -59
-91 -99 -36 -40 -89 -98 -117 -129 l-53 -56 0 -373 0 -372 -197 2 -198 3 -1
731 -1 731 -158 219 c-88 121 -253 350 -369 509 -363 502 -578 799 -611 841
l-31 41 -68 -76z"/>
</g>
</svg>
